<svg xmlns="http://www.w3.org/2000/svg" width="1111.7705078125px" height="704.17431640625px" x="0px" y="0px" style="enable-background:new 0 0 1400 980" viewBox="0 0 1111.7705078125 704.17431640625"><defs><clipPath id="a" clipPathUnits="userSpaceOnUse"><path d="M0 841.89h595.28V0H0Z"/></clipPath><clipPath id="c" clipPathUnits="userSpaceOnUse"><path d="M0 841.89h595.28V0H0Z"/></clipPath><linearGradient id="b" x1="0" x2="1" y1="0" y2="0" gradientTransform="matrix(0 -30.82521 -30.82521 0 302.535 451.448)" gradientUnits="userSpaceOnUse" spreadMethod="pad"><stop offset="0" style="stop-opacity:1;stop-color:#00a0df"/><stop offset="1" style="stop-opacity:1;stop-color:#0069b4"/></linearGradient></defs><path fill="none" d="M0 0h1111.77v704.174H0z" style="fill:#050a2d;fill-opacity:0;pointer-events:none"/><g clip-path="url(#a)" transform="matrix(4.06084 0 0 -4.06084 -663.712 2139.532)"><path d="M0 0c.298.809.541 1.738.679 2.84.674 5.303-1.183 14.701-13.88 29.66-.336.439-32.039 41.598 6.13 87.57-7.437-2.988-14.431-7.167-20.752-12.476-15.654-13.121-25.232-31.566-26.991-51.924a77.4 77.4 0 0 1 .357-16.819l.228.087C-38.061 19.186-19.916 6.176 0 0" style="fill:#f09814;fill-opacity:1;fill-rule:nonzero;stroke:none" transform="translate(282.237 383.554)"/><path d="M0 0c.058.047.679.523 1.388 1.498-17.35 5.969-35.454 17.697-52.705 38.43 2.029-11.891 6.886-23.145 14.304-32.948l.1.127C-36.7 6.945-13.555-10.211 0 0" style="fill:#f09814;fill-opacity:1;fill-rule:nonzero;stroke:none" transform="translate(279.547 379.562)"/><path d="M0 0c6.149-7.232 10.398-13.881 12.756-19.897V88.149a72.995 72.995 0 0 1-6.987-2.123C-31.819 42.052-1.217 1.594 0 0" style="fill:#f09814;fill-opacity:1;fill-rule:nonzero;stroke:none" transform="translate(272.245 418.66)"/><path d="M0 0c-1.408-2.389-2.978-3.494-3.031-3.529-12.541-9.436-29.404 1.326-36.586 6.787 10.26-12.026 23.661-20.44 38.663-24.375.261.408.582.908.954 1.492z" style="fill:#f09814;fill-opacity:1;fill-rule:nonzero;stroke:none" transform="translate(285.001 379.728)"/><path d="M0 0a16.38 16.38 0 0 0-.778-3.27 88.98 88.98 0 0 1 9.445-1.957c11.817 26.608 25.475 73.781 8.832 128.635a76.629 76.629 0 0 1-19.513-2.279V13.082C-.141 8.306.535 3.938 0 0" style="fill:#f09814;fill-opacity:1;fill-rule:nonzero;stroke:none" transform="translate(287.015 385.68)"/><path d="M0 0c-6.357-28.369-32.729-41.587-35.041-42.718-8.422-4.481-12.482-9.903-13.663-14.862 4.485.022 9.063.352 13.703.979 23.872 3.223 42.098 13.787 46.885 16.809 4.607 8.818 7.472 18.564 8.368 28.794 2.704 31.116-13.72 59.573-39.5 73.735C-2.447 39.821 4.557 20.248 0 0" style="fill:#f09814;fill-opacity:1;fill-rule:nonzero;stroke:none" transform="translate(359.57 436.944)"/><path d="M0 0v-19.625c2.02 3.227 5.519 9.187 9.339 17.412A94.545 94.545 0 0 0 .014.021C.014.016 0 .004 0 0" style="fill:#f09814;fill-opacity:1;fill-rule:nonzero;stroke:none" transform="translate(285.001 379.728)"/><path d="M0 0a16.113 16.113 0 0 0-.213 2.047c-2.622.154-5.272.43-7.966.83-4.08-9.207-7.878-15.789-9.998-19.217a81.632 81.632 0 0 1 8.685-1.26c8.773-.748 17.441-.025 25.718 2.096C10.906-13.68 1.602-9.291 0 0" style="fill:#f09814;fill-opacity:1;fill-rule:nonzero;stroke:none" transform="translate(306.465 373.966)"/><path d="M0 0c.02-.447.045-.885.104-1.309 1.082-8.375 12.45-13.72 15.635-15.056 9.619 2.961 18.634 7.853 26.577 14.537a76.286 76.286 0 0 1 14.312 15.861C45.818 8.32 24.949-.531 0 0" style="fill:#f09814;fill-opacity:1;fill-rule:nonzero;stroke:none" transform="translate(310.484 375.835)"/><path d="M0 0a102.22 102.22 0 0 1 6.792-.506c.951 6.35 5.513 13.151 15.828 18.263l.133.115.144.055c.301.141 27.397 13.436 33.917 40.437 4.596 18.895-1.743 40.017-18.84 62.816a76.25 76.25 0 0 1-31.229 7.921C23.912 74.281 11.476 27.225 0 0" style="fill:#f09814;fill-opacity:1;fill-rule:nonzero;stroke:none" transform="translate(299.63 379.937)"/><path d="M0 0v-.029c0 .004.014.015.014.021z" style="fill:#f09814;fill-opacity:1;fill-rule:nonzero;stroke:none" transform="translate(285.001 379.757)"/><path d="m0 0 .011.016S0 .004-.011.004z" style="fill:#f09814;fill-opacity:1;fill-rule:nonzero;stroke:none" transform="translate(326.397 357.366)"/><path d="M0 0c19.361-15.935 19.723-31.424 19.723-31.424 0-.255-8.125-46.499-8.236-47.099-3.616-15.25-32.923-42.01-32.923-42.01 9.918 3.385 78.119 27.238 107.724 27.791a46.513 46.513 0 0 1 9.434-2.871 55.618 55.618 0 0 1 8.281-.998c3.909-.176 9.765.571 17.867 2.307 3.513.185 6.048-.18 6.902-.606 7.288-3.683 17.971-8.332 27.582-9.689 4.925-.981 10.705-1.701 17.625-.412 0 0 4.544 1.054 6.585 1.822 2.604.996 7.61 2.865 7.61 2.865 9.308 3.052 22.064 4.02 32.596.711-14.099 8.564-16.593 13.742-14.099 25.351 2.422 11.204-4.762 17.517-4.762 17.517 16.495 37.437 46.911 40.296 46.911 40.296-38.455 13.16-58.637 4.629-70.452-.447-16.168-6.948-5.728.738-5.728.738-18.79-6.501-44.602-20.712-44.602-20.712s-20.034 12.924-41.427 10.463c11.337-6.168 7.648-8.891-1.116-4.618C85.495-31.025 38.477-8.88 0 0" style="fill:#231916;fill-opacity:1;fill-rule:nonzero;stroke:none" transform="translate(185.996 490.53)"/><path d="M0 0h.022Z" style="fill:#231916;fill-opacity:1;fill-rule:nonzero;stroke:none" transform="translate(399.918 473.946)"/></g><path d="m212.931 459.889-8.27-49.592c-1.949-11.737-15.594-23.878-18.455-26.302 14.15 4.836 57.591 18.838 86.934 19.022 2.842-1.309 6.013-2.331 9.455-3.01 2.386-.462 4.89-.77 7.504-.891 4.162-.195 11.009 1.004 16.955 2.283 2.294.149 7.195.264 9.991-1.16 6.482-3.268 16.987-7.96 26.11-9.185 6.574-1.334 13.51-1.797 22.155 1.348 8.801 3.233 15.92 9.591 19.77 17.719 4.002 8.455 2.512 14.481-2.682 19.702-4.121 4.136-9.595 5.883-15.008 7.707-.456.153-6.223 2.232-6.543 6.489-.409 5.141 8.433 6.717 11.012 7.161 7.01 1.191 11.509-1.632 16.005-4.507 5.836 8.532 20.741 25.523 30.999 27.584-1.887.387-7.001 1.592-16.491 2.007-8.543.542-18.388-.97-27.244-3.625-8.621-2.587-18.545-7.034-25.971-13.122 0 0-12.951-10.431-11.337-26.116.765-15.021 25.02-14.755 20.37-26.812-2.261-5.811-9.075-6.572-13.319-6.043 0 0-11.368.529-12.822 9.941.837 11.711 2.194 28.926 2.845 37.208.023.007.042.031.042.031 0 9.227 12.856 17.249 12.856 17.249-27.887-11.431-31.685-16.32-31.685-16.32l-3.452-41.823c-2.321 1.151-4.439 1.974-4.439 5.571l1.76 17.325-20.516 1.494s5.233-2.428 4.484-8.392c0 0-1.58-10.899-2.022-13.148-4.087-.079-7.221 1.108-9.334 3.534-3.893 4.457-3.391 11.796-2.736 15.778.867 5.298 3.102 9.433 6.474 11.997 3.167 2.39 7.213 3.319 12.012 2.733 6.649-.793 11.859-6.874 11.859-6.874s3.08 8.783.827 12.812c-2.253 4.026-26.401 10.548-26.401 10.548s9.597-3.947 2.518-6.191c-6.241-.916-12.013-3.203-16.734-6.768-3.313-2.507-5.954-5.537-7.899-8.976-1.465-.721-3.871-1.639-5.632-.95l-17.748 3.022 1.752 16.078 14.674-4.724c6.035-2.953 3.908-5.737 3.908-5.737l9.694 8.463s-39.809 18.313-66.885 25.476c0 0 12.527-8.813 10.66-20.014m25.074-29.882 12.584-.962c5.695-.177 7.581-2.998 8.196-4.942-.031-3.443.609-6.611 1.873-9.429-1.138-2.378-3.634-5.279-9.063-5.279l-15.853-.24z" style="fill:url(#b);stroke:none" transform="matrix(4.06084 0 0 -4.06084 -663.712 2139.532)"/><g clip-path="url(#c)" transform="matrix(4.06084 0 0 -4.06084 -663.712 2139.532)"><path d="M0 0c23.67-7.005 53.889-19.895 60.099-22.706-4.38-2.76-7.342-6.815-7.342-6.815-.619 3.98-5.933 5.682-5.933 5.682l-14.655 4.754-2.03-18.637 18.76-3.198s5.351-1.053 7.852 2.796c1.863 3.312 3.539 4.949 6.702 7.333 4.469 3.389 10.075 5.651 16.19 6.538 3.628.429 3.262 3.156 3.262 3.156 0 .995-1.032 2.034-2.698 2.968 16.262-4.394 22.592-9.979 22.592-9.979l-.959-9.751s-4.427 4.812-11.027 5.686c-5.132.614-9.463-.392-12.889-2.977-3.618-2.734-6.01-7.14-6.929-12.741-.68-4.19-1.197-11.941 3.016-16.775 2.345-2.689 5.795-4.024 10.254-3.942l.964.019.182.941c.449 2.267 1.973 12.778 2.04 13.231.044.349.066.688.066 1.021 0 2.518-.698 4.632-2.195 6.051 5.463-.318 13.95-1.024 15.661-1.131a8320.984 8320.984 0 0 1-1.481-15.248c0-3.479 2.815-5.149 6.162-6.774 0 0 3.825 40.383 3.909 41.428 1.552 1.116 7.406 5.695 23.779 12.913-4.052-3.541-6.862-7.517-7.288-13.203l-2.872-38.507c0-8.845 12.956-9.803 13.893-9.868 5.501-.663 12.204.778 14.53 6.814 2.715 7.002-2.533 10.447-8.162 13.786-5.56 3.279-11.312 6.67-11.647 13.503-1.46 14.869 11.389 25.005 11.514 25.111 6.149 5.263 14.613 9.968 24.47 12.936 9.377 2.809 18.901 4.073 26.831 3.574h.02c5.037-.22 8.801-.676 11.524-1.088-7.554-2.898-19.344-13.363-26.225-24.838-5.758 3.536-10.238 4.758-16.012 4.24-2.782-.26-11.505-2.157-12.817-9.215-.846-4.485 5.165-6.543 8.826-7.986 3.106-1.229 10.17-3.424 13.928-7.206 5.223-5.249 5.979-10.911 2.459-18.347-3.742-7.885-10.517-13.972-19.111-17.113-8.798-3.193-15.805-2.447-21.496-1.303l-.043.002-.037.01c-8.766 1.179-18.836 5.583-25.726 9.068-3.006 1.53-7.94 1.461-10.619 1.287l-.082-.007-.085-.014c-7.575-1.63-13.333-2.412-16.653-2.26-2.485.129-4.95.412-7.324.878-3.323.657-6.41 1.632-9.18 2.92l-.243.116h-.264C38.929-73.036.639-84.552-16.562-90.185c5.249 5.139 13.23 14.233 14.73 23.193l8.264 49.595C8.043-9.095 0 0 0 0m103.16-44.457 1.872 17.087C90.644-16.034 71.995-15.03 71.995-15.03c9.407-3.991 8.532-6.057 8.532-6.067-.014-.102-.134-.696-1.376-.82-12.654-1.101-21.136-8.894-23.559-13.509-2.152-3.876-6.081-3.185-6.081-3.185l-16.749 2.868c.184 1.747 1.221 11.276 1.466 13.495 2.279-.733 11.855-3.708 11.855-3.708 6.302-1.96 5.841-9.45 5.841-9.45 5.231 8.991 13.349 12.888 13.349 12.888-.399.191-44.536 20.398-73.056 27.273 0 0 11.073-11.048 10.44-21.76l-8.258-49.59s-3.555-16.621-21.428-29.684c12.844 4.397 62.86 20.754 92.265 21.018 2.867-1.307 6.045-2.317 9.448-2.987 2.49-.48 5.076-.793 7.677-.912 3.56-.165 9.334.608 17.165 2.285 2 .118 6.748.26 9.304-1.033 7.045-3.562 17.351-8.078 26.427-9.304 6.022-1.213 12.753-1.998 22.554 1.4 9.631 3.365 17.242 9.872 21.439 18.328 4.162 8.373 3.191 15.081-3.051 21.067-4.361 4.179-13.563 7.189-15.502 7.931-2.558.98-7.57 2.017-6.634 5.868.977 4.048 6.634 6.094 10.588 6.146 7.387.085 11.883-2.477 16.258-6.729 6.133 13.75 24.865 28.469 33.605 30.223C206.475-.3 194.763.383 194.763.383c-8.207.202-18.023-.791-27.657-3.687-5.972-1.795-16.564-5.908-25.223-13.335-.528-.404-13.984-10.997-12.391-27.176.397-8.084 6.982-11.983 12.793-15.407 6.237-3.68 8.97-5.996 7.109-10.85-2.385-6.144-10.462-5.481-12.058-5.274h-.094c-.417.012-11.673.703-11.673 7.774.836 11.498 2.838 38.122 2.838 38.122s.725 9.34 14.755 19.541c-24.514-9.355-35.888-17.924-35.888-17.924s-3.041-35.069-3.33-38.64c-2.159.893-2.154 3.415-2.159 5.368.016.193 1.827 14.874 1.827 14.874l-23.837 1.18c.237-.068 5.35-3.96 5.35-8.325 0-.235-.01-.48-.043-.723-.016-.074-1.257-8.645-1.832-12.067-3.229.127-5.747 1.129-7.442 3.075-2.26 2.595-2.889 6.336-2.889 9.684 0 1.935.21 3.747.436 5.127.816 4.978 2.895 8.872 6.015 11.23 2.904 2.2 6.662 3.046 11.151 2.504 0 0 10.993-1.823 12.639-9.911" style="fill:#fff;fill-opacity:1;fill-rule:nonzero;stroke:none" transform="translate(207.68 477.086)"/><path d="M0 0c1.903-.158 11.419-.886 11.419-.886 4.762-.163 6.485-2.217 7.096-3.969.011-3.286.614-6.344 1.754-9.125-1.494-2.756-4.088-4.17-7.747-4.17 0 0-12.257-.186-14.517-.219C-1.756-16.156-.209-1.919 0 0m-2.253 1.405-2.411-22.2 17.2.264-.014-.015c6.038 0 8.843 3.235 10.142 5.954l.243.493-.233.505c-1.202 2.674-1.796 5.682-1.759 8.942v.196l-.064.176c-.663 2.069-2.745 5.562-9.298 5.774.053 0-12.528.96-12.528.96l-1.151.097z" style="fill:#fff;fill-opacity:1;fill-rule:nonzero;stroke:none" transform="translate(239.073 428.743)"/><path d="M0 0s-1.789-13.606 12.054-16.475c0 0-8.561 2.519-9.875 16.367" style="fill:#fff;fill-opacity:1;fill-rule:nonzero;stroke:none" transform="translate(257.808 424.199)"/><path d="M0 0s-12.669 4.394-15.989 10.401c0 0 2.698-9.228 15.783-12.761z" style="fill:#fff;fill-opacity:1;fill-rule:nonzero;stroke:none" transform="translate(338.606 403.031)"/><path d="M0 0c1.741 0 3.447 1.416 3.795 3.164l7.448 40.183c.357 1.734-.771 3.152-2.36 3.152h-81.904c-1.89 0-3.587-1.418-3.954-3.152l-8.181-40.183c-.365-1.748.77-3.164 2.51-3.164Z" style="fill:#044196;fill-opacity:1;fill-rule:nonzero;stroke:none" transform="translate(340.99 472.05)"/><path d="m0 0-3.181-15.483s-2.159-8.905 9.576-8.905c0 0 10.31-.356 13.162 7.849l.94 4.584h-8.045l-.745-3.642s-.79-3.041-4.094-2.817c0 0-3.423-.35-2.669 2.463L8.208 0s.09 2.643 3.785 2.931c0 0 3.345 0 2.988-2.575l-.821-3.991h8.042l.819 3.991s1.583 8.562-9.862 8.326c0 0-10.983-.468-13.159-8.682" style="fill:#fff;fill-opacity:1;fill-rule:nonzero;stroke:none" transform="translate(294.056 502.01)"/><path d="m0 0-3.18-15.483s-2.163-8.905 9.569-8.905c0 0 10.31-.356 13.168 7.849l.937 4.584h-8.051l-.736-3.642s-.802-3.041-4.096-2.817c0 0-3.421-.35-2.682 2.463L8.203 0s.089 2.643 3.784 2.931c0 0 3.349 0 2.988-2.575l-.811-3.991h8.04l.811 3.991s1.588 8.562-9.854 8.326c0 0-10.983-.468-13.161-8.682" style="fill:#fff;fill-opacity:1;fill-rule:nonzero;stroke:none" transform="translate(318.549 502.01)"/><path d="M0 0h-9.316l-16.436-17.917 2.616 11.678-8.494.009-7.269-33.765h8.492l1.965 9.421 2.192 2.532 2.924-11.953h8.42l-4.882 18.376z" style="fill:#fff;fill-opacity:1;fill-rule:nonzero;stroke:none" transform="translate(305.17 518.444)"/><path d="M0 0h-9.338l-6.117-6.702h9.301z" style="fill:#e52020;fill-opacity:1;fill-rule:nonzero;stroke:none" transform="translate(311.309 525.146)"/><path d="M0 0s-.439 10.617 6.336 19.6l-.739 2.204-2.501-2.792C-.145 14-2.322 13.585-2.5 2.431Z" style="fill:#fff;fill-opacity:1;fill-rule:nonzero;stroke:none" transform="translate(259.972 422.31)"/><path d="M0 0s-8.298-8.298-6.729-21.986l1.913.382S-5.738-8.194 2.206-.681z" style="fill:#fff;fill-opacity:1;fill-rule:nonzero;stroke:none" transform="translate(264.395 443.519)"/><path d="M0 0s-4.374-4.77-4.664-17.338l2.547-.247S-2.306-8.439 2.89-.446z" style="fill:#231916;fill-opacity:1;fill-rule:nonzero;stroke:none" transform="translate(259.533 441.66)"/><path d="M0 0s-2.438-4.445-3.225-13.576c0 0-.309 1.494-2.618 2.058 0 0 1.474 7.002 3.238 10.977 0 0 1.448-.171 2.605.541" style="fill:#fff;fill-opacity:1;fill-rule:nonzero;stroke:none" transform="translate(258.062 439.254)"/><path d="M0 0s1.532-.327 2.376.08c0 0-1.126-2.819-1.624-7.249 0 0-.501.622-2.565.69z" style="fill:#0081c4;fill-opacity:1;fill-rule:nonzero;stroke:none" transform="translate(252.714 436.784)"/><path d="M0 0c1.527 0 2.775 1.266 2.775 2.803 0 1.603-1.193 2.847-2.682 2.847-1.53 0-2.785-1.222-2.785-2.847C-2.692 1.285-1.437 0 0 0m.093 8.738c3.388 0 6.275-2.67 6.275-5.935C6.368-.373 3.481-3.08.093-3.08-3.278-3.08-6.2-.373-6.2 2.803c0 3.265 2.922 5.935 6.293 5.935m-1.823 5.955h-5.979v9.52h3.669v-6.377H7.507v-3.143H1.744v-2.539h9.562v-3.14h-22.641v3.14h9.605z" style="fill:#231916;fill-opacity:1;fill-rule:nonzero;stroke:none" transform="translate(364.778 318.446)"/><path d="M0 0v8.4h-10.61v3.258H3.688V-.334M2.619.855h5.024v-3.179H-1.47v-11.424h-3.712v11.424h-9.275V.855H-.854" style="fill:#231916;fill-opacity:1;fill-rule:nonzero;stroke:none" transform="translate(393.074 330.237)"/><path d="M0 0v-3.084c-2.558-.207-8.279-.711-9.911-.711l-4.84-.021V9.826h10.964V6.563h-7.403V-.641l1.706.03C-7.425-.586-3.278-.24 0 0m-10.523-6.578h3.556v-5.565H3.325v-3.236h-13.848ZM3.349 4.014h3.392V.756H3.349v-13.953h-3.53V9.84h3.53z" style="fill:#231916;fill-opacity:1;fill-rule:nonzero;stroke:none" transform="translate(418.47 332.056)"/><path d="M0 0h.862v-1.793S1.057-.521 0 0" style="fill:#231916;fill-opacity:1;fill-rule:nonzero;stroke:none" transform="translate(420.18 341.896)"/><path d="M277.477 325.687h21.707v-3.256h-21.707zm20.148 6.687-1.714-2.768c-1.463.381-3.492 1.194-4.801 2.127-1.202.909-2.249 1.954-2.779 2.862-.457-.815-1.361-1.699-2.461-2.514-1.363-1.047-3.53-1.949-5.204-2.418l-1.74 2.647c2.272.847 4.867 2.13 5.955 3.654.932 1.299 1.5 2.83 1.5 4.73v1.692h3.786v-1.692c0-2.095.674-3.748 1.77-5.027 1.178-1.367 3.47-2.51 5.688-3.293M248.151 341.896h3.55v-24.795h-3.55zm-6.067-6.87c0 2.125-1.34 3.875-3.023 3.875-1.71 0-3.021-1.75-3.021-3.875 0-2.066 1.311-3.879 3.021-3.879 1.683 0 3.023 1.813 3.023 3.879m-9.6 0c0 3.961 2.916 7.219 6.577 7.219 3.693 0 6.603-3.258 6.603-7.219 0-3.964-2.91-7.226-6.603-7.226-3.661 0-6.577 3.262-6.577 7.226M270.611 341.896h3.494v-24.795h-3.494zm-10.268-2.893h-4.349v2.914h12.328v-2.914h-4.457c.11-1.674.448-4.701 1.085-5.908.743-1.426 2.425-3.155 4.605-4.467l-1.915-2.279c-.978.517-2.006 1.242-2.928 2.07-1.025.898-1.92 1.855-2.56 2.682-.491-.745-1.393-1.723-2.362-2.633-1.086-1.008-2.291-1.91-3.215-2.42l-2.074 2.24c1.946 1.24 4.073 3.281 4.915 4.936.719 1.314.897 4.257.927 5.779" style="fill:#231916;fill-opacity:1;fill-rule:nonzero;stroke:none"/><path d="M0 0h.857l.353-.566-.353-1.227S1.051-.521 0 0" style="fill:#231916;fill-opacity:1;fill-rule:nonzero;stroke:none" transform="translate(255.807 341.896)"/><path d="M302.804 325.532h21.703v-3.338h-21.703zm12.93 13.362h-4.376l.061-5.893h4.241zm3.346 0-.088-5.893h2.998l.123-3.082h-16.859l-.134 3.082h2.929l-.045 5.893h-2.611v3.214h16.264v-3.214z" style="fill:#231916;fill-opacity:1;fill-rule:nonzero;stroke:none"/><path d="M0 0h-6.269v8.686H5.727v2.265H-6.269v3.213H9.463v-8.6H-2.561V3.24H9.975V0H3.741v-2.531h9.577v-3.242H-9.686v3.242H0Z" style="fill:#231916;fill-opacity:1;fill-rule:nonzero;stroke:none" transform="translate(337.642 327.929)"/><path d="M0 0c0-2.332.304-4.197.919-5.584.701-1.607 1.76-2.414 3.173-2.414 1.334 0 2.347.707 3.042 2.111.546 1.084.813 2.336.813 3.764h4.631c0-3.176-.886-5.738-2.651-7.678-1.569-1.762-3.445-2.638-5.622-2.638-2.593 0-4.696 1.066-6.323 3.195-1.74 2.271-2.612 5.353-2.612 9.23 0 3.266.61 6.02 1.835 8.262 1.568 2.85 3.899 4.277 6.988 4.277 2.689 0 4.738-.857 6.15-2.58 1.286-1.57 1.936-3.664 1.936-6.283H7.748c0 1.227-.315 2.285-.928 3.17-.697.957-1.574 1.434-2.622 1.434-1.433 0-2.514-.897-3.248-2.684C.316 4.082 0 2.223 0 0" style="fill:#231916;fill-opacity:1;fill-rule:nonzero;stroke:none" transform="translate(195.518 329.944)"/><path d="M0 0c0-2.332.309-4.197.931-5.584.694-1.607 1.75-2.414 3.166-2.414 1.336 0 2.35.707 3.043 2.111.545 1.084.811 2.336.811 3.764h4.628c0-3.176-.881-5.738-2.654-7.678-1.564-1.762-3.437-2.638-5.612-2.638-2.587 0-4.696 1.066-6.321 3.195-1.747 2.271-2.619 5.353-2.619 9.23 0 3.266.612 6.02 1.845 8.262 1.562 2.85 3.886 4.277 6.982 4.277 2.693 0 4.743-.857 6.147-2.58 1.289-1.57 1.932-3.664 1.932-6.283H7.754c0 1.227-.312 2.285-.924 3.17-.698.957-1.571 1.434-2.624 1.434-1.432 0-2.517-.897-3.255-2.684C.325 4.082 0 2.223 0 0" style="fill:#231916;fill-opacity:1;fill-rule:nonzero;stroke:none" transform="translate(216.06 329.944)"/><path d="M0 0h5.081l-6.182-10.875 6.182-13.359H-.123l-5.295 12.418h-.059v-12.418H-10.1V0h4.623v-10.369h.059z" style="fill:#231916;fill-opacity:1;fill-rule:nonzero;stroke:none" transform="translate(184.262 342.202)"/><path d="m0 0-1.802-3.684L.31-8.566H-.962l-1.487 3.683-.355-.945v-2.738H-3.87V0h1.066v-3.299L-1.301 0Z" style="fill:#231916;fill-opacity:1;fill-rule:nonzero;stroke:none" transform="translate(178.032 308.985)"/><path d="M0 0h-1.079v1.102c0 .294-.074.537-.223.718-.169.211-.416.317-.739.317-.312 0-.554-.119-.723-.356-.174-.242-.261-.58-.261-1.013v-3.971c0-.414.087-.746.261-.994a.84.84 0 0 1 .723-.387.81.81 0 0 1 .708.377c.17.256.254.617.254 1.082v.787H0v-.344c0-.933-.132-1.631-.394-2.097-.317-.584-.861-.875-1.631-.875-.806 0-1.368.289-1.685.865-.263.48-.393 1.266-.393 2.353V.066c0 1.024.13 1.786.393 2.284.323.611.867.916 1.631.916.755 0 1.304-.248 1.648-.746C-.144 2.113 0 1.543 0 .807Z" style="fill:#231916;fill-opacity:1;fill-rule:nonzero;stroke:none" transform="translate(187.676 305.896)"/><path d="M0 0h-1.079v1.102c0 .294-.074.537-.222.718-.17.211-.416.317-.739.317-.313 0-.554-.119-.723-.356-.175-.242-.262-.58-.262-1.013v-3.971c0-.414.087-.746.262-.994a.84.84 0 0 1 .723-.387.81.81 0 0 1 .708.377c.169.256.253.617.253 1.082v.787H0v-.344c0-.933-.131-1.631-.392-2.097-.318-.584-.862-.875-1.632-.875-.806 0-1.368.289-1.687.865-.261.48-.392 1.266-.392 2.353V.066c0 1.024.131 1.786.392 2.284.324.611.868.916 1.632.916.755 0 1.305-.248 1.648-.746C-.144 2.113 0 1.543 0 .807Z" style="fill:#231916;fill-opacity:1;fill-rule:nonzero;stroke:none" transform="translate(197.34 305.896)"/><path d="M0 0h2.951v-1.123H1.079v-2.475h1.756V-4.67H1.079v-2.75h1.933v-1.143H0Z" style="fill:#231916;fill-opacity:1;fill-rule:nonzero;stroke:none" transform="translate(210.206 308.981)"/><path d="M0 0h-1.079v.879c0 .418-.04.713-.122.885-.149.289-.448.433-.9.433-.302 0-.54-.148-.714-.443a1.598 1.598 0 0 1-.216-.828v-4.137c0-.381.087-.693.262-.935.175-.25.401-.377.678-.377.319 0 .558.132.716.394.149.238.225.57.225.998v1.033h-.794v1.141h1.872v-4.459h-.986l-.131.434a2.154 2.154 0 0 0-.524-.434 1.397 1.397 0 0 0-.701-.178c-.678 0-1.144.289-1.395.865-.2.461-.3 1.213-.3 2.256V.066c0 1.071.113 1.846.339 2.325.297.623.841.935 1.631.935.738 0 1.288-.265 1.647-.795C-.164 2.039 0 1.316 0 .365Z" style="fill:#231916;fill-opacity:1;fill-rule:nonzero;stroke:none" transform="translate(222.752 305.835)"/><path d="M229.412 300.419h-1.105v8.566h1.105z" style="fill:#231916;fill-opacity:1;fill-rule:nonzero;stroke:none"/><path d="M0 0h-1.105v.768c0 .341-.043.576-.13.701-.114.162-.336.244-.665.244-.356 0-.595-.09-.72-.266-.087-.138-.13-.384-.13-.738 0-.184.004-.316.015-.395A.88.88 0 0 1-2.62.01c.061-.092.162-.194.301-.305.113-.1.298-.24.554-.424l.347-.246c.36-.262.609-.453.748-.572.211-.182.369-.361.477-.531.119-.19.203-.42.255-.688.05-.264.077-.609.077-1.035 0-.814-.155-1.404-.463-1.773-.323-.395-.852-.59-1.587-.59-.724 0-1.232.177-1.524.531-.24.279-.361.732-.361 1.348v1.152h1.091v-.926c0-.361.043-.611.131-.748.119-.191.349-.287.694-.287.359 0 .609.107.747.316.113.164.17.414.17.748 0 .415-.08.749-.239 1.006-.19.301-.583.676-1.179 1.121-.579.44-.952.782-1.115 1.026-.231.347-.346.836-.346 1.465 0 .724.154 1.265.463 1.625.319.363.796.543 1.435.543.657 0 1.154-.12 1.488-.356.304-.215.456-.517.456-.902Z" style="fill:#231916;fill-opacity:1;fill-rule:nonzero;stroke:none" transform="translate(238.696 306.396)"/><path d="M0 0h.825c.19 0 .342.063.455.188.133.144.2.365.2.658v1.222c0 .289-.067.502-.2.639a.547.547 0 0 1-.425.178H0Zm-1.078 3.994H1.05c.503 0 .881-.133 1.134-.402.266-.289.4-.733.4-1.328V.846c0-.709-.119-1.215-.355-1.514-.236-.303-.632-.455-1.187-.455H0v-3.445h-1.078z" style="fill:#231916;fill-opacity:1;fill-rule:nonzero;stroke:none" transform="translate(252.736 304.987)"/><path d="M0 0h.177c.4 0 .667.004.801.012.199.011.346.035.439.068a.321.321 0 0 1 .184.188c.026.07.039.193.039.363v1.142c0 .184-.015.313-.047.385-.03.084-.097.147-.199.188-.098.039-.26.06-.485.068-.155.006-.457.01-.909.01Zm-1.078 3.498H.578c.735 0 1.267-.09 1.595-.268.381-.209.57-.576.57-1.101V.967c0-.485-.05-.83-.153-1.033-.134-.264-.401-.442-.802-.532.231-.119.413-.248.547-.384a1.25 1.25 0 0 0 .285-.454c.056-.142.093-.326.108-.541.011-.132.015-.355.015-.669v-2.422H1.649v3.041c0 .222-.01.379-.03.463a.49.49 0 0 1-.178.306c-.103.07-.265.123-.485.158A7.305 7.305 0 0 1 0-1.053v-4.015h-1.078z" style="fill:#231916;fill-opacity:1;fill-rule:nonzero;stroke:none" transform="translate(261.764 305.491)"/><path d="M0 0c0 .334-.074.613-.223.836a.794.794 0 0 1-.708.394.808.808 0 0 1-.731-.412A1.533 1.533 0 0 1-1.87 0v-4.006c0-.361.067-.67.201-.926.163-.328.41-.492.738-.492.349 0 .6.164.755.492.117.244.176.565.176.965Zm1.072-3.611c-.005-.84-.108-1.479-.307-1.92C.45-6.199-.116-6.533-.938-6.533c-.832 0-1.401.334-1.709 1.002-.201.427-.301 1.066-.301 1.92v3.16c-.005.799.096 1.412.301 1.84.308.658.877.984 1.709.984.816 0 1.384-.326 1.703-.984.204-.434.307-1.047.307-1.84z" style="fill:#231916;fill-opacity:1;fill-rule:nonzero;stroke:none" transform="translate(272.846 306.788)"/><path d="m0 0 .294.01c.411 0 .69.008.834.019.217.02.376.063.48.129.114.065.19.174.231.324.042.131.063.338.063.622v.806c0 .262-.021.457-.063.582a.48.48 0 0 1-.254.295c-.119.059-.307.094-.564.108-.166.013-.489.021-.975.021H0Zm0 3.928c.103.013.214.019.332.019h.5c.231 0 .401.018.509.049a.441.441 0 0 1 .278.19c.056.089.094.232.115.421.015.151.025.405.03.76 0 .274-.02.475-.061.6a.517.517 0 0 1-.224.316c-.108.057-.271.096-.493.117-.149.012-.433.02-.855.02H0Zm-1.078 3.525h2.176c.694 0 1.161-.119 1.403-.355.231-.235.348-.688.348-1.358v-.719c0-.5-.061-.845-.179-1.042-.118-.198-.362-.352-.732-.463.401-.112.676-.307.826-.582.148-.256.222-.668.222-1.241V.887c0-.828-.133-1.373-.401-1.635-.242-.242-.722-.365-1.442-.365h-2.221z" style="fill:#231916;fill-opacity:1;fill-rule:nonzero;stroke:none" transform="translate(287.805 301.532)"/><path d="M0 0h1.094L.556 3.674Zm1.357 5.197 1.357-8.566H1.627L1.28-1.174H-.185l-.338-2.195h-1.094l1.355 8.566z" style="fill:#231916;fill-opacity:1;fill-rule:nonzero;stroke:none" transform="translate(297.704 303.788)"/><path d="M0 0h-1.104v.768c0 .341-.043.576-.132.701-.114.162-.333.244-.664.244-.356 0-.596-.09-.718-.266-.088-.138-.132-.384-.132-.738 0-.184.004-.316.016-.395A.841.841 0 0 1-2.619.01c.061-.092.162-.194.301-.305.112-.1.297-.24.554-.424l.346-.246c.36-.262.609-.453.747-.572.212-.182.371-.361.48-.531.117-.19.202-.42.253-.688.051-.264.077-.609.077-1.035 0-.814-.155-1.404-.462-1.773-.323-.395-.854-.59-1.587-.59-.724 0-1.232.177-1.525.531-.24.279-.36.732-.36 1.348v1.152h1.092v-.926c0-.361.043-.611.131-.748.117-.191.349-.287.692-.287.36 0 .609.107.747.316.113.164.17.414.17.748 0 .415-.079.749-.238 1.006-.19.301-.583.676-1.18 1.121-.578.44-.951.782-1.115 1.026-.23.347-.346.836-.346 1.465 0 .724.154 1.265.463 1.625.319.363.798.543 1.435.543.658 0 1.155-.12 1.49-.356.302-.215.454-.517.454-.902Z" style="fill:#231916;fill-opacity:1;fill-rule:nonzero;stroke:none" transform="translate(309.42 306.396)"/><path d="m0 0-1.805-3.684L.308-8.566H-.964l-1.487 3.683-.355-.945v-2.738h-1.065V0h1.065v-3.299L-1.303 0Z" style="fill:#231916;fill-opacity:1;fill-rule:nonzero;stroke:none" transform="translate(318.834 308.985)"/><path d="M0 0h2.951v-1.123H1.08v-2.475h1.757V-4.67H1.08v-2.75h1.934v-1.143H0Z" style="fill:#231916;fill-opacity:1;fill-rule:nonzero;stroke:none" transform="translate(324.315 308.981)"/><path d="M0 0v-1.109h-1.472v-7.454h-1.103v7.454H-3.8V0Z" style="fill:#231916;fill-opacity:1;fill-rule:nonzero;stroke:none" transform="translate(336.164 308.981)"/><path d="m0 0 .294.01c.412 0 .69.008.835.019.216.02.376.063.477.129a.505.505 0 0 1 .234.324c.041.131.061.338.061.622v.806c0 .262-.02.457-.061.582a.485.485 0 0 1-.255.295c-.12.059-.308.094-.565.108-.165.013-.49.021-.974.021H0Zm0 3.928c.103.013.214.019.331.019h.502c.23 0 .399.018.507.049a.436.436 0 0 1 .278.19c.057.089.095.232.115.421.015.151.026.405.032.76 0 .274-.021.475-.062.6a.525.525 0 0 1-.224.316c-.108.057-.272.096-.493.117-.149.012-.433.02-.854.02H0Zm-1.077 3.525h2.174c.694 0 1.161-.119 1.404-.355.23-.235.347-.688.347-1.358v-.719c0-.5-.059-.845-.178-1.042-.118-.198-.362-.352-.732-.463.4-.112.675-.307.825-.582.149-.256.223-.668.223-1.241V.887c0-.828-.132-1.373-.401-1.635-.242-.242-.723-.365-1.442-.365h-2.22z" style="fill:#231916;fill-opacity:1;fill-rule:nonzero;stroke:none" transform="translate(349.858 301.532)"/><path d="M0 0h1.095L.556 3.674Zm1.356 5.197 1.357-8.566H1.626l-.347 2.195H-.184l-.339-2.195h-1.094l1.356 8.566z" style="fill:#231916;fill-opacity:1;fill-rule:nonzero;stroke:none" transform="translate(359.757 303.788)"/><path d="M0 0v-7.414h1.688V-8.57h-2.793V0Z" style="fill:#231916;fill-opacity:1;fill-rule:nonzero;stroke:none" transform="translate(368.787 308.99)"/><path d="M0 0v-7.414h1.688V-8.57h-2.792V0Z" style="fill:#231916;fill-opacity:1;fill-rule:nonzero;stroke:none" transform="translate(376.803 308.99)"/><path d="M0 0h-1.079v1.102c0 .294-.074.537-.223.718-.169.211-.416.317-.738.317-.313 0-.554-.119-.723-.356-.175-.242-.261-.58-.261-1.013v-3.971c0-.414.086-.746.261-.994a.837.837 0 0 1 .723-.387c.303 0 .539.127.707.377.17.256.254.617.254 1.082v.787H0v-.344c0-.933-.132-1.631-.393-2.097-.318-.584-.862-.875-1.632-.875-.806 0-1.369.289-1.686.865-.262.48-.393 1.266-.393 2.353V.066c0 1.024.131 1.786.393 2.284.324.611.867.916 1.632.916.755 0 1.304-.248 1.647-.746C-.144 2.113 0 1.543 0 .807Z" style="fill:#231916;fill-opacity:1;fill-rule:nonzero;stroke:none" transform="translate(395.256 305.896)"/><path d="M0 0v-7.414h1.688V-8.57h-2.792V0Z" style="fill:#231916;fill-opacity:1;fill-rule:nonzero;stroke:none" transform="translate(401.845 308.99)"/><path d="M0 0v-5.809c0-.492-.016-.869-.045-1.132-.041-.389-.123-.704-.239-.946a1.47 1.47 0 0 0-.595-.633c-.287-.158-.661-.236-1.118-.236-.464 0-.838.078-1.127.236-.267.145-.47.356-.608.633-.125.242-.206.557-.248.946-.03.275-.045.652-.045 1.132V0h1.102v-6.381c0-.447.044-.746.133-.896.123-.203.388-.305.793-.305.39 0 .644.102.762.305.088.144.131.445.131.896V0z" style="fill:#231916;fill-opacity:1;fill-rule:nonzero;stroke:none" transform="translate(412.904 308.997)"/><path d="m0 0 .294.01c.411 0 .689.008.835.019.216.02.375.063.478.129a.501.501 0 0 1 .231.324c.042.131.063.338.063.622v.806c0 .262-.021.457-.063.582a.476.476 0 0 1-.253.295c-.119.059-.308.094-.564.108-.167.013-.491.021-.974.021H0Zm0 3.928c.103.013.213.019.331.019h.502c.23 0 .399.018.507.049a.438.438 0 0 1 .278.19c.056.089.095.232.115.421.016.151.026.405.031.76 0 .274-.021.475-.061.6a.529.529 0 0 1-.224.316c-.108.057-.272.096-.494.117-.148.012-.432.02-.854.02H0Zm-1.079 3.525h2.176c.693 0 1.161-.119 1.403-.355.231-.235.348-.688.348-1.358v-.719c0-.5-.06-.845-.178-1.042-.118-.198-.363-.352-.733-.463.401-.112.675-.307.826-.582.148-.256.222-.668.222-1.241V.887c0-.828-.132-1.373-.4-1.635-.242-.242-.723-.365-1.442-.365h-2.222z" style="fill:#231916;fill-opacity:1;fill-rule:nonzero;stroke:none" transform="translate(419.597 301.532)"/></g></svg>